<svg xmlns="http://www.w3.org/2000/svg" xmlns:xlink="http://www.w3.org/1999/xlink" width="500" zoomAndPan="magnify" viewBox="0 0 375 374.999991" height="500" preserveAspectRatio="xMidYMid meet" version="1.0"><defs><clipPath id="2d494c20df"><path d="M 187.5 0 C 83.945312 0 0 83.945312 0 187.5 C 0 291.054688 83.945312 375 187.5 375 C 291.054688 375 375 291.054688 375 187.5 C 375 83.945312 291.054688 0 187.5 0 Z M 187.5 0 " clip-rule="nonzero"/></clipPath><clipPath id="ce8634f636"><path d="M 44 85 L 290 85 L 290 331 L 44 331 Z M 44 85 " clip-rule="nonzero"/></clipPath><clipPath id="1a7c2742db"><path d="M 127.292969 78.714844 L 296.285156 247.707031 L 206.492188 337.5 L 37.5 168.507812 Z M 127.292969 78.714844 " clip-rule="nonzero"/></clipPath><clipPath id="d5f4262f28"><path d="M 139.488281 90.910156 L 284.085938 235.511719 C 290.824219 242.246094 290.824219 253.167969 284.085938 259.90625 L 218.691406 325.300781 C 211.953125 332.039062 201.03125 332.039062 194.296875 325.300781 L 49.695312 180.703125 C 42.960938 173.96875 42.960938 163.046875 49.695312 156.308594 L 115.09375 90.910156 C 121.832031 84.175781 132.753906 84.175781 139.488281 90.910156 Z M 139.488281 90.910156 " clip-rule="nonzero"/></clipPath><clipPath id="db08abc917"><path d="M 225 254 L 283 254 L 283 312 L 225 312 Z M 225 254 " clip-rule="nonzero"/></clipPath><clipPath id="fcfde35a54"><path d="M 200.105469 279.617188 L 251.085938 228.632812 L 282.921875 260.46875 L 231.9375 311.453125 Z M 200.105469 279.617188 " clip-rule="nonzero"/></clipPath><clipPath id="20cbdf3464"><path d="M 225.59375 254.125 L 282.921875 260.46875 L 231.9375 311.453125 Z M 225.59375 254.125 " clip-rule="nonzero"/></clipPath><clipPath id="7454168fe1"><path d="M 161 241 L 240 241 L 240 320 L 161 320 Z M 161 241 " clip-rule="nonzero"/></clipPath><clipPath id="bf04d467cb"><path d="M 145.671875 271.21875 L 190.570312 226.324219 L 254.535156 290.289062 L 209.636719 335.183594 Z M 145.671875 271.21875 " clip-rule="nonzero"/></clipPath><clipPath id="68eb64ae65"><path d="M 168.121094 248.769531 C 155.722656 261.167969 159.992188 285.539062 177.65625 303.203125 C 195.320312 320.867188 219.6875 325.136719 232.085938 312.738281 C 244.484375 300.339844 240.214844 275.96875 222.550781 258.304688 C 204.886719 240.640625 180.519531 236.375 168.121094 248.769531 Z M 168.121094 248.769531 " clip-rule="nonzero"/></clipPath><clipPath id="d9a9328b72"><path d="M 91 44 L 330 44 L 330 284 L 91 284 Z M 91 44 " clip-rule="nonzero"/></clipPath><clipPath id="5e027b4b76"><path d="M 167.6875 37.5 L 336.679688 206.492188 L 253.023438 290.148438 L 84.03125 121.15625 Z M 167.6875 37.5 " clip-rule="nonzero"/></clipPath><clipPath id="f2cb18c73d"><path d="M 179.882812 49.695312 L 324.480469 194.292969 C 331.21875 201.03125 331.21875 211.953125 324.480469 218.691406 L 265.21875 277.949219 C 258.484375 284.6875 247.5625 284.6875 240.824219 277.949219 L 96.226562 133.351562 C 89.492188 126.617188 89.492188 115.695312 96.226562 108.957031 L 155.488281 49.695312 C 162.226562 42.960938 173.148438 42.960938 179.882812 49.695312 Z M 179.882812 49.695312 " clip-rule="nonzero"/></clipPath><clipPath id="c8d2152edd"><path d="M 94 59 L 152 59 L 152 118 L 94 118 Z M 94 59 " clip-rule="nonzero"/></clipPath><clipPath id="1f125f7c5a"><path d="M 177.066406 91.777344 L 126.082031 142.761719 L 94.25 110.925781 L 145.230469 59.945312 Z M 177.066406 91.777344 " clip-rule="nonzero"/></clipPath><clipPath id="b37deb8d61"><path d="M 151.574219 117.269531 L 94.25 110.925781 L 145.230469 59.945312 Z M 151.574219 117.269531 " clip-rule="nonzero"/></clipPath><clipPath id="f7971f57e6"><path d="M 138 52 L 217 52 L 217 132 L 138 132 Z M 138 52 " clip-rule="nonzero"/></clipPath><clipPath id="8e50a4e2ac"><path d="M 122.792969 82.394531 L 167.691406 37.5 L 231.65625 101.464844 L 186.757812 146.359375 Z M 122.792969 82.394531 " clip-rule="nonzero"/></clipPath><clipPath id="4f0a19feaf"><path d="M 145.242188 59.949219 C 132.84375 72.34375 137.113281 96.714844 154.777344 114.378906 C 172.441406 132.042969 196.808594 136.3125 209.207031 123.914062 C 221.605469 111.515625 217.335938 87.144531 199.671875 69.480469 C 182.007812 51.820312 157.640625 47.550781 145.242188 59.949219 Z M 145.242188 59.949219 " clip-rule="nonzero"/></clipPath><clipPath id="0872dd485d"><path d="M 126 98 L 308 98 L 308 280 L 126 280 Z M 126 98 " clip-rule="nonzero"/></clipPath><clipPath id="3162d65fb9"><path d="M 177.070312 91.78125 L 314.230469 228.941406 L 256.273438 286.902344 L 119.113281 149.742188 Z M 177.070312 91.78125 " clip-rule="nonzero"/></clipPath><clipPath id="654155a4cc"><path d="M 189.269531 103.980469 L 302.035156 216.746094 C 308.769531 223.480469 308.769531 234.402344 302.035156 241.140625 L 268.46875 274.703125 C 261.734375 281.441406 250.8125 281.441406 244.074219 274.703125 L 131.3125 161.9375 C 124.574219 155.203125 124.574219 144.28125 131.3125 137.542969 L 164.875 103.980469 C 171.609375 97.242188 182.53125 97.242188 189.269531 103.980469 Z M 189.269531 103.980469 " clip-rule="nonzero"/></clipPath><clipPath id="1953a00169"><path d="M 67 99 L 244 99 L 244 277 L 67 277 Z M 67 99 " clip-rule="nonzero"/></clipPath><clipPath id="57433f034f"><path d="M 113.792969 92.214844 L 250.953125 229.375 L 197.105469 283.21875 L 59.949219 146.058594 Z M 113.792969 92.214844 " clip-rule="nonzero"/></clipPath><clipPath id="bf5d1ed207"><path d="M 125.992188 104.414062 L 238.753906 217.175781 C 245.492188 223.914062 245.492188 234.835938 238.753906 241.570312 L 209.304688 271.023438 C 202.566406 277.757812 191.644531 277.757812 184.910156 271.023438 L 72.144531 158.257812 C 65.410156 151.519531 65.410156 140.597656 72.144531 133.863281 L 101.59375 104.414062 C 108.332031 97.675781 119.253906 97.675781 125.992188 104.414062 Z M 125.992188 104.414062 " clip-rule="nonzero"/></clipPath><clipPath id="911cc0707d"><path d="M 88 86 L 288 86 L 288 287 L 88 287 Z M 88 86 " clip-rule="nonzero"/></clipPath><clipPath id="74e6cf384b"><path d="M 122.789062 82.394531 L 291.785156 251.386719 L 253.023438 290.148438 L 84.03125 121.15625 Z M 122.789062 82.394531 " clip-rule="nonzero"/></clipPath><clipPath id="1a1967a6aa"><path d="M 129.683594 89.289062 L 284.890625 244.496094 C 288.695312 248.300781 288.695312 254.476562 284.890625 258.28125 L 259.917969 283.253906 C 256.109375 287.0625 249.9375 287.0625 246.128906 283.253906 L 90.925781 128.050781 C 87.117188 124.242188 87.117188 118.070312 90.925781 114.261719 L 115.894531 89.289062 C 119.703125 85.480469 125.875 85.480469 129.683594 89.289062 Z M 129.683594 89.289062 " clip-rule="nonzero"/></clipPath></defs><g clip-path="url(#2d494c20df)"><rect x="-37.5" width="450" fill="#252627" y="-37.499999" height="449.999989" fill-opacity="1"/></g><g clip-path="url(#ce8634f636)"><g clip-path="url(#1a7c2742db)"><g clip-path="url(#d5f4262f28)"><path fill="#d1631e" d="M 127.292969 78.714844 L 296.285156 247.707031 L 206.492188 337.5 L 37.5 168.507812 Z M 127.292969 78.714844 " fill-opacity="1" fill-rule="nonzero"/></g></g></g><g clip-path="url(#db08abc917)"><g clip-path="url(#fcfde35a54)"><g clip-path="url(#20cbdf3464)"><path fill="#f67b2f" d="M 200.105469 279.617188 L 251.085938 228.632812 L 282.921875 260.46875 L 231.9375 311.453125 Z M 200.105469 279.617188 " fill-opacity="1" fill-rule="nonzero"/></g></g></g><g clip-path="url(#7454168fe1)"><g clip-path="url(#bf04d467cb)"><g clip-path="url(#68eb64ae65)"><path fill="#d1631e" d="M 145.671875 271.21875 L 190.570312 226.324219 L 254.535156 290.289062 L 209.636719 335.183594 Z M 145.671875 271.21875 " fill-opacity="1" fill-rule="nonzero"/></g></g></g><g clip-path="url(#d9a9328b72)"><g clip-path="url(#5e027b4b76)"><g clip-path="url(#f2cb18c73d)"><path fill="#d1631e" d="M 167.6875 37.5 L 336.679688 206.492188 L 253.023438 290.148438 L 84.03125 121.15625 Z M 167.6875 37.5 " fill-opacity="1" fill-rule="nonzero"/></g></g></g><g clip-path="url(#c8d2152edd)"><g clip-path="url(#1f125f7c5a)"><g clip-path="url(#b37deb8d61)"><path fill="#f67b2f" d="M 177.066406 91.777344 L 126.082031 142.761719 L 94.25 110.925781 L 145.230469 59.945312 Z M 177.066406 91.777344 " fill-opacity="1" fill-rule="nonzero"/></g></g></g><g clip-path="url(#f7971f57e6)"><g clip-path="url(#8e50a4e2ac)"><g clip-path="url(#4f0a19feaf)"><path fill="#d1631e" d="M 122.792969 82.394531 L 167.691406 37.5 L 231.65625 101.464844 L 186.757812 146.359375 Z M 122.792969 82.394531 " fill-opacity="1" fill-rule="nonzero"/></g></g></g><g clip-path="url(#0872dd485d)"><g clip-path="url(#3162d65fb9)"><g clip-path="url(#654155a4cc)"><path fill="#252627" d="M 177.070312 91.78125 L 314.230469 228.941406 L 256.273438 286.902344 L 119.113281 149.742188 Z M 177.070312 91.78125 " fill-opacity="1" fill-rule="nonzero"/></g></g></g><g clip-path="url(#1953a00169)"><g clip-path="url(#57433f034f)"><g clip-path="url(#bf5d1ed207)"><path fill="#252627" d="M 113.792969 92.214844 L 250.953125 229.375 L 197.105469 283.21875 L 59.949219 146.058594 Z M 113.792969 92.214844 " fill-opacity="1" fill-rule="nonzero"/></g></g></g><g clip-path="url(#911cc0707d)"><g clip-path="url(#74e6cf384b)"><g clip-path="url(#1a1967a6aa)"><path fill="#f67b2f" d="M 122.789062 82.394531 L 291.785156 251.386719 L 253.023438 290.148438 L 84.03125 121.15625 Z M 122.789062 82.394531 " fill-opacity="1" fill-rule="nonzero"/></g></g></g></svg>